PathFileType	4	(X/Y/Z)	pose_F01_0-88.trc
DataRate	CameraRate	NumFrames	NumMarkers	Units	OrigDataRate	OrigDataStartFrame	OrigNumFrames
30	30	9	21	m	30	77	88
Frame#	Time	CHip			RHip			RKnee			RAnkle			RBigToe			RSmallToe			RHeel			LHip			LKnee			LAnkle			LBigToe			LSmallToe			LHeel			Neck			Nose			RShoulder			RElbow			RWrist			LShoulder			LElbow			LWrist			
		X1	Y1	Z1	X2	Y2	Z2	X3	Y3	Z3	X4	Y4	Z4	X5	Y5	Z5	X6	Y6	Z6	X7	Y7	Z7	X8	Y8	Z8	X9	Y9	Z9	X10	Y10	Z10	X11	Y11	Z11	X12	Y12	Z12	X13	Y13	Z13	X14	Y14	Z14	X15	Y15	Z15	X16	Y16	Z16	X17	Y17	Z17	X18	Y18	Z18	X19	Y19	Z19	X20	Y20	Z20	X21	Y21	Z21	
77	2.566666666666667	-0.22916987075756268	1.8823796451383825	-0.49996407040939533	-0.23986093918406293	1.8762525213323664	-0.4296540526647389	-0.25026800234600055	1.7282644731130485	-0.39725328670605	-0.25762068623596907	1.5591630988274547	-0.34048112241177975	-0.21856872147462258	1.5210689575627954	-0.4013128138030312	-0.22483894328079004	1.5212073474090873	-0.3558756505706382	-0.263094286785256	1.5554533032311326	-0.33475113706349396	-0.22122724260368745	1.8842519312755122	-0.5650466752688504	-0.22047331766949754	1.7403158930609417	-0.5828336973029621	-0.23940757043040387	1.5848258564864384	-0.5746581265072752	-0.20331810088205077	1.5435963146474292	-0.6347732511657189	-0.20874920540123393	1.5560898838702113	-0.6517182950600106	-0.24359682561353432	1.56831825063528	-0.5554347552279176	-0.23437338192592128	2.0586703860811317	-0.5024066923467166	-0.20675085964983989	2.1340942599872617	-0.5626894498880769	-0.24502819998813818	2.057799041365662	-0.41150011051225077	-0.27152682392905136	1.967071177536036	-0.3114197043122156	-0.23823276447983566	1.8961882781552646	-0.3503695464007057	-0.2201235248086649	2.0617008387909017	-0.5975397370021882	-0.2218659652549198	2.00850559831276	-0.664533759104774	-0.12594583197198808	1.9939255462232124	-0.7116209654074084
78	2.6	-0.23003767189084387	1.8862745043343123	-0.5038102013337539	-0.24277512588839417	1.8813970228550758	-0.43162421211102353	-0.2505292094813944	1.7263775931408214	-0.397053126873916	-0.25809168745987066	1.5620034028970475	-0.34001024007306	-0.21830084944030717	1.522605645706038	-0.3992710053113232	-0.2235684565953169	1.5223314165662116	-0.35504805905664794	-0.265049744771347	1.555449716541145	-0.3361243257624894	-0.2229645861515097	1.8906027005360309	-0.5639161695312709	-0.2227346803103969	1.7412315767646995	-0.5806168170569183	-0.23984030627636502	1.5869398201460878	-0.5743257225463324	-0.2013572810425395	1.544740607871695	-0.6370059259050166	-0.2075115573139868	1.5555984260114126	-0.6528675450381575	-0.24425571087529438	1.5714513587850043	-0.5550779699472227	-0.23537804306365	2.0587497947792395	-0.5053133758366017	-0.2106387562299776	2.1344095018185296	-0.5666032918112496	-0.2469520150923662	2.0577621197078417	-0.4094945488311487	-0.2757458964659871	1.9662005415931039	-0.30142297490853454	-0.2440044508894466	1.8946804787283462	-0.3523397395602143	-0.22015924283234747	2.061744977887503	-0.5975118311272626	-0.22272663318171274	2.0112198149598837	-0.6678883648434244	-0.12594583197198808	1.9939255462232124	-0.7116209654074084
79	2.6333333333333333	-0.2331048997713798	1.8850031853792057	-0.5048551390516541	-0.2436934455773144	1.8798532607839749	-0.43464001610770564	-0.2525707857319689	1.727640358094149	-0.3949587236943964	-0.25816529173675107	1.5622920532712776	-0.3399408299780181	-0.21856167993433767	1.5185872769225772	-0.4033417851057628	-0.22455823853530243	1.5193094278662898	-0.35816320665558554	-0.26377914783369566	1.557122233534638	-0.3333039625572385	-0.2240885963263114	1.8881349048458491	-0.5665712431062272	-0.22558374692919814	1.7343190114022815	-0.5769355552790426	-0.24077518852877994	1.586782331047017	-0.5774210170022662	-0.20395060711041368	1.544097468460999	-0.6338127071260105	-0.20789053713492292	1.5544500774275147	-0.652272675713713	-0.2442856867467723	1.5716146882874389	-0.5551398477730849	-0.23552903327429553	2.0586118187929374	-0.5052624767408034	-0.21256348095397568	2.134733145328341	-0.5725610000295657	-0.2480505985315887	2.0578334664420863	-0.41253412094455816	-0.27651982438656836	1.9665997209839354	-0.2965073875026047	-0.24550874631124878	1.893078374082479	-0.3556051093479842	-0.2231238187261613	2.0616848548712547	-0.5983819685999854	-0.2257437244142365	2.013812029508179	-0.6691680958636154	-0.12594583197198808	1.9939255462232124	-0.7116209654074084
80	2.6666666666666665	-0.23673946642507915	1.8855666399126518	-0.5090327250321749	-0.24668326658757056	1.8810595058517912	-0.43589239183389317	-0.253484255904323	1.7259480177906776	-0.39811407519087216	-0.25995944043587993	1.5659985414619222	-0.3427594151125133	-0.21990077228802998	1.5231174201085635	-0.3981393782756101	-0.2268713090779628	1.5237023962822827	-0.35637597953470007	-0.26829873256695064	1.5597852933913279	-0.33754902142466	-0.22782320688580562	1.8895603356527257	-0.570958383629332	-0.232242241073799	1.735519733204698	-0.574184472191678	-0.2405580941780258	1.5854636845273178	-0.5776449653734699	-0.20322288380347264	1.5435367295153881	-0.6347174645157554	-0.2066463013965087	1.5551465535766829	-0.6537892378050276	-0.24411202698920634	1.5703513088909382	-0.5553980229991743	-0.23836953655226462	2.057349769306957	-0.5057879799229973	-0.2164507620610223	2.134976544167868	-0.5765106887922072	-0.24802242738791203	2.058830064476547	-0.41253021519614486	-0.27529478954254155	1.9674579434846327	-0.2931029965719487	-0.24816847376929077	1.889625613746942	-0.35339859529184314	-0.22414547747444546	2.0618446345449306	-0.6014766541905084	-0.2353594041721296	2.023267933510142	-0.666630726997387	-0.12594583197198808	1.9939255462232124	-0.7116209654074084
81	2.7	-0.24017873290972078	1.8808338498342054	-0.5092886749114461	-0.2500513207221876	1.8764295772680686	-0.4362539153467644	-0.261226979389274	1.7250671897503151	-0.38946558979639834	-0.2594551175901044	1.5627841749650286	-0.3432488065324476	-0.21926962420107982	1.522344813439214	-0.40085540869806907	-0.2259824730819771	1.5216025335719054	-0.3571745518850631	-0.26468783945685714	1.5554898075484167	-0.3369848142402999	-0.23014370459401629	1.8845661805079335	-0.5767050535098686	-0.2324761927231708	1.7333083232924855	-0.5737915263999431	-0.24049082637348362	1.5851524945476418	-0.5777047966102078	-0.2027451231819907	1.5456614005923839	-0.6310889303278521	-0.20540206565809443	1.5558430297258512	-0.6553057998963422	-0.245033826357374	1.5701691468430945	-0.5585985744505194	-0.23849478038411664	2.057320092370709	-0.505722365676533	-0.2244116991317689	2.1350838814661066	-0.5762025057452855	-0.25103773217878317	2.0568167482429494	-0.41366803507928424	-0.27420225766555356	1.9679843745413288	-0.2902246694331615	-0.2590122859422981	1.8930377086316963	-0.3467766406658268	-0.22619064710694803	2.061921854990381	-0.5993495288497014	-0.23858974183220724	2.02502731166697	-0.6683978230516214	-0.12594583197198808	1.9939255462232124	-0.7116209654074084
82	2.7333333333333334	-0.24605208562877207	1.8802721320147164	-0.5026710711388884	-0.2528430483198576	1.876034582173843	-0.43721353078914765	-0.26282733508851824	1.7197175098092616	-0.3869376094333397	-0.2611565472640625	1.5621155619592784	-0.3411242408585223	-0.21863847611412965	1.5215722067698643	-0.40357143912052806	-0.2244543055949866	1.521358301161757	-0.3584640673760927	-0.26670028583225014	1.554136367209664	-0.3338758990108964	-0.23083132822846442	1.8854369341074555	-0.5797752162017688	-0.23407339864510807	1.7350844860132193	-0.5723100044883196	-0.24249793381218904	1.5849011650721394	-0.5757096081241483	-0.20581215293143654	1.5428044753600598	-0.6314848152312038	-0.20415782991968018	1.5565395058750195	-0.6568223619876568	-0.24450722817162232	1.5671445143685	-0.5590254413936895	-0.2385655395368002	2.057377341661679	-0.5057664873993329	-0.2292776882922373	2.1354372905749552	-0.582902771695397	-0.2528798592636563	2.0580153324251054	-0.4115771436154539	-0.2656208639112187	1.9680510381839815	-0.28710811432519817	-0.26552906952163396	1.885591953079306	-0.3563707112969196	-0.2241873226640282	2.060544554420279	-0.6009436832868615	-0.2418200794922849	2.0267866898237985	-0.6701649191058558	-0.12594583197198808	1.9939255462232124	-0.7116209654074084
83	2.7666666666666666	-0.24883291491446874	1.8826504665390797	-0.5039262127207211	-0.2565765526993776	1.8779726271263393	-0.4417607893309616	-0.26422933269329346	1.7243044358776622	-0.3906966142634623	-0.2617893110653376	1.566117197974502	-0.3407078557630916	-0.2198064767336641	1.5253798234982778	-0.39836206267646934	-0.22639641576418032	1.523829089537893	-0.3568424057758422	-0.2670063554702601	1.5563394872270127	-0.33378657057301414	-0.23787690845240705	1.885797078925229	-0.5764382330920099	-0.23847650034052764	1.7387230124876876	-0.5765681716472576	-0.24311183437184256	1.5854237552787647	-0.5747093165739924	-0.20528818324869	1.542781152273003	-0.6325429068168574	-0.20291359418126595	1.5572359820241877	-0.6583389240789714	-0.24633946013114674	1.5714184659216253	-0.5528680481523931	-0.24633852134779732	2.0575834328451195	-0.5054580302096741	-0.23131965350745484	2.1354022111453026	-0.5810048342970043	-0.25580827975689424	2.0581938589701223	-0.412586528631756	-0.25908098044810557	1.9712053017582742	-0.29119514711618355	-0.26669735072804984	1.8954747042649511	-0.3531098808217592	-0.23338806052489655	2.059113866429268	-0.5947856265222038	-0.24505041715236253	2.028546067980627	-0.6719320151600903	-0.12594583197198808	1.9939255462232124	-0.7116209654074084
84	2.8	-0.25176353329166024	1.882857001666697	-0.505094496106038	-0.2596122256455408	1.8777674147343921	-0.44291064228096444	-0.26745350832796294	1.7236973722133293	-0.391491168988541	-0.2616364093869766	1.5647441035718903	-0.3410327952305543	-0.22274228523925835	1.5248565439649402	-0.39953915070651086	-0.228224461303631	1.5232409562009783	-0.3547871806988915	-0.26684029656311464	1.557812167357851	-0.3343482051729246	-0.2419054570015465	1.8866569708736087	-0.5723382314608173	-0.23852626328765741	1.7376666204888762	-0.576455141334493	-0.24260072259148144	1.5852018785256048	-0.5755356549808626	-0.2051907902982684	1.542068066439759	-0.6324823120081278	-0.20166935844285172	1.5579324581733558	-0.6598554861702861	-0.24553183266535655	1.5672164993523388	-0.5532022292506595	-0.25137046211261227	2.0589451765068425	-0.5047572651589858	-0.23231209705776626	2.135573257921175	-0.5838578407436984	-0.2607732415668778	2.0587067945519375	-0.4121374392646419	-0.25456826905131263	1.972963656709624	-0.29312818380615874	-0.27149821932370327	1.89485521032898	-0.35823994445412805	-0.2384030911135413	2.0591588189514645	-0.5933875934418198	-0.24828075481244016	2.0303054461374552	-0.6736991112143247	-0.12594583197198808	1.9939255462232124	-0.7116209654074084
85	2.8333333333333335	-0.2529309978223663	1.8800370927308767	-0.5077366261214875	-0.26666785268789966	1.876153214792798	-0.43940439923876473	-0.2673688816317942	1.7254816259014452	-0.3917422848228463	-0.26124407493431245	1.5626512615964159	-0.3412481709540038	-0.2175706554369414	1.5223845375335472	-0.3999100165916536	-0.22425497195528935	1.5209271521740813	-0.35835389320243016	-0.26637974958458255	1.555112045635791	-0.3346183175152407	-0.24514963152375038	1.8829407105262121	-0.5726281718904825	-0.24359592767305208	1.7368428743926234	-0.5752464668196265	-0.24265027096058334	1.5850591409612287	-0.5755194693893741	-0.20389387113492322	1.5420769093352789	-0.6378824794237304	-0.20042512270443746	1.5586289343225241	-0.6613720482616007	-0.24784934073458376	1.5681376873760795	-0.5509930240929682	-0.2544130829140452	2.058754449375976	-0.5056946274058416	-0.236211633234634	2.135917675353409	-0.5878607407087671	-0.2657575804593637	2.0572019699835242	-0.41112790150368084	-0.24815574104622676	1.9721101372365517	-0.29617961818665534	-0.27250141170188436	1.895145352090482	-0.3673714804885042	-0.24045553746769838	2.05907142238555	-0.5913529959922205	-0.2515110924725178	2.0320648242942836	-0.6754662072685591	-0.12594583197198808	1.9939255462232124	-0.7116209654074084
